<?xml version="1.0" standalone="no"?>
<!DOCTYPE svg PUBLIC "-//W3C//DTD SVG 20010904//EN"
 "http://www.w3.org/TR/2001/REC-SVG-20010904/DTD/svg10.dtd">
<svg version="1.0" xmlns="http://www.w3.org/2000/svg"
 width="1280.000000pt" height="1169.000000pt" viewBox="0 0 1280.000000 1169.000000"
 preserveAspectRatio="xMidYMid meet">
<metadata>
Created by potrace 1.15, written by Peter Selinger 2001-2017
</metadata>
<g transform="translate(0.000000,1169.000000) scale(0.100000,-0.100000)"
fill="#000000" stroke="none">
<path d="M6335 11676 c-90 -21 -143 -43 -215 -86 -149 -90 -108 -26 -804
-1250 -348 -613 -1641 -2888 -2873 -5055 -1232 -2167 -2265 -3987 -2296 -4045
-123 -231 -152 -338 -144 -529 8 -189 44 -299 142 -429 87 -116 219 -203 385
-254 l75 -23 5755 -3 c5199 -2 5763 -1 5835 13 119 24 263 97 352 180 178 164
263 383 249 639 -8 150 -33 246 -100 379 -28 56 -771 1391 -1650 2967 -879
1576 -2152 3857 -2827 5070 -1333 2392 -1239 2234 -1385 2330 -140 92 -347
131 -499 96z"/>
</g>
</svg>
